<?xml version="1.0" encoding="UTF-8"?>
<svg version="1.1" xmlns="http://www.w3.org/2000/svg" xmlns:xlink="http://www.w3.org/1999/xlink">
<defs>

</defs>
<symbol id="i-arrow-right-long" viewBox="0 0 28 16" xmlns="http://www.w3.org/2000/svg"><path d="M0 9h23v.2l-5.6 5.6v.4h3.4L28 8v-.8L20.8 0h-3.4v.4L23 6v.2H0V9z"/></symbol>
<symbol id="i-arrow-right-new" viewBox="0 0 51 32" xmlns="http://www.w3.org/2000/svg"><path d="M29.62 5.78l6.082 6.15H0v8.14h35.702l-6.082 6.15L35.294 32 51 16 35.294 0 29.62 5.78z"/></symbol>
<symbol id="i-arrow-right" viewBox="0 0 22 20" xmlns="http://www.w3.org/2000/svg"><path d="M8.166 3.613L12.1 7.457H0v5.086h12.101l-3.935 3.844L11.837 20 22 10 11.837 0 8.166 3.613z"/></symbol>
<symbol id="i-cross" viewBox="0 0 18 18" xmlns="http://www.w3.org/2000/svg"><path d="M0 15.632L2.368 18 9 11.368 15.632 18 18 15.632 11.368 9 18 2.368 15.632 0 9 6.632 2.368 0 0 2.368 6.632 9 0 15.632z"/></symbol>
<symbol id="i-fullscreen" viewBox="0 0 32 32" fill="none" xmlns="http://www.w3.org/2000/svg"><path fill="#fff" d="M16 0h16v5H16zM16 32H0v-5h16z"/><path fill="#fff" d="M27 16V0h5v16zM5 16v16H0V16z"/><path d="M29 3L18 14M14 18L3 29" stroke="#fff" stroke-width="5"/></symbol>
<symbol id="i-logo" viewBox="0 0 76 57" fill="none" xmlns="http://www.w3.org/2000/svg"><path fill-rule="evenodd" clip-rule="evenodd" d="M67.865 47.548c-.716 1.245-2.056 1.986-3.73 1.986-2.83 0-4.357-2.136-4.357-4.51 0-2.422 1.548-4.46 4.307-4.508 1.69-.037 2.952.703 3.656 1.85l3.467-2.103c-1.392-2.179-3.901-3.633-7.073-3.633-5.129 0-8.422 3.79-8.422 8.444 0 4.604 3.29 8.348 8.422 8.348 3.29 0 5.83-1.497 7.197-3.768l-3.467-2.106zm-19.38-1.217l-6.241-9.344h-4.428v16.07h3.994v-9.87l6.679 9.87h3.99v-16.07h-3.99v9.344h-.003zM8.45 49.558v-2.95h4.258c.992 0 1.621.694 1.621 1.392 0 .768-.654 1.558-1.621 1.558H8.449zm3.923-9.042c.967 0 1.525.719 1.525 1.413 0 .695-.58 1.439-1.525 1.439h-3.92v-2.856h3.92v.004zm3.386 4.075c1.33-.6 2.226-1.872 2.226-3.356 0-2.567-2.105-4.245-4.815-4.245h-8.71v16.07h9.001c2.71 0 4.961-1.894 4.961-4.63 0-1.991-1.259-3.236-2.66-3.74v-.099h-.003zm5.783 8.468h12.678V49.22h-8.685V36.987h-3.993v16.072zM75.049 57H0V33.05h75.046V57h.003zM70.59 20.01v-3.836H60.359v-2.496h6.698v-3.6h-6.698V7.778h10.233V3.94H56.365v16.07H70.59zM52.766 3.94H38.539v16.07h3.993v-5.828h6.94v-3.596h-6.94V7.78h10.236V3.94h-.003zM34.933 20.01v-3.836h-5.101V7.78h5.1V3.94H20.742v3.84h5.1v8.394h-5.1v3.836h14.192zm-30.474 0h12.679v-3.836H8.453V3.941H4.459v16.07zm70.59 3.94H0V0h75.046v23.95h.003z" fill="currentColor"/></symbol>
<symbol id="i-play" viewBox="0 0 88 88" fill="none" xmlns="http://www.w3.org/2000/svg"><path d="M61 44L33 60V28l28 16z" fill="#fff"/></symbol>
<symbol id="i-small-left-arrow-new" viewBox="0 0 19 11" xmlns="http://www.w3.org/2000/svg"><path fill-rule="evenodd" clip-rule="evenodd" d="M3.956 6.31l2.617 2.617-1.146 1.146L.854 5.5 5.427.927l1.146 1.146L3.956 4.69H18.5v1.62H3.956z"/></symbol>
<symbol id="i-small-left-arrow" viewBox="0 0 12 11" xmlns="http://www.w3.org/2000/svg"><path d="M3.796 4.722l2.978-2.95L5.621.62.715 5.525l4.906 4.906 1.153-1.154-2.963-2.934h7.606V4.722H3.796z"/></symbol>
<symbol id="i-small-right-arrow" viewBox="0 0 12 11" fill="none" xmlns="http://www.w3.org/2000/svg"><path d="M5.49 1.773l2.978 2.949H.847v1.62h7.606L5.49 9.278l1.153 1.154 4.906-4.906L6.643.619 5.49 1.773z" fill="#fff"/></symbol>
<symbol id="i-wri-logo" viewBox="0 0 111 37" fill="none" xmlns="http://www.w3.org/2000/svg"><path fill-rule="evenodd" clip-rule="evenodd" d="M10.701 3.067L8.584 5.141l1.995 1.955 2.117-2.075L10.7 3.067zM24.857 21.09l7.653 7.5 2.117-2.075-7.654-7.5-2.116 2.075zM8.31 10.358l2.117 2.075 8.452-8.284L21.89 7.1l2.117-2.075L18.878 0 8.31 10.358zm22.201.004l2.117 2.074 2-1.959-2.117-2.074-2 1.959zM8.584 31.85l2.117 2.075 7.653-7.5-2.117-2.075-7.653 7.5zM19.412 21.24l2.117 2.075 7.923-7.766-2.117-2.074-7.923 7.765z" fill="#285AE3"/><path fill-rule="evenodd" clip-rule="evenodd" d="M25.065 10.212l8.457 8.287-3.007 2.948 2.116 2.074 5.125-5.021L27.182 8.138l-2.117 2.074zM3.138 26.514l2.117 2.074 1.99-1.95-2.117-2.075-1.99 1.95zm16.273-15.948l2.117 2.074 7.652-7.5-2.117-2.074-7.653 7.5h.002zM0 18.5l10.574 10.362 2.117-2.074L4.234 18.5l3.016-2.956-2.118-2.074L0 18.5zm13.754-8.292l7.928 7.769 2.116-2.074-7.927-7.77-2.117 2.075zM25.069 31.97l1.995 1.955 2.117-2.075-1.995-1.955-2.117 2.075zM3.139 10.48l7.651 7.498 2.117-2.074-7.652-7.5-2.117 2.075M13.969 21.09l7.927 7.768 2.117-2.075-7.927-7.769-2.117 2.075z" fill="#285AE3"/><path fill-rule="evenodd" clip-rule="evenodd" d="M18.878 32.851l-3.01-2.951-2.118 2.074L18.878 37l10.579-10.367-2.117-2.074-8.462 8.292zM8.305 21.451l2.117 2.075 7.931-7.773-2.116-2.075-7.932 7.773M48.456 4.077c-.093-.291-.185-.483-.3-.559-.087-.059-.25-.072-.32-.072-.083 0-.133-.008-.133-.073 0-.055.069-.069.178-.069.423 0 .867.02.942.02.074 0 .43-.02.899-.02.11 0 .168.02.168.07 0 .064-.065.072-.146.072-.064 0-.144 0-.2.03-.074.033-.09.087-.09.173 0 .106.08.375.179.729.136.526.888 2.931 1.035 3.375h.023l1.57-4.133c.081-.225.136-.286.204-.286.089 0 .128.12.236.375l1.682 3.987h.023c.145-.531.794-2.626 1.08-3.553.052-.182.078-.348.078-.462 0-.125-.072-.235-.39-.235-.077 0-.134-.026-.134-.073 0-.055.06-.069.186-.069.428 0 .767.02.84.02.056 0 .405-.02.672-.02.087 0 .145.014.145.062 0 .054-.037.08-.11.08a.966.966 0 00-.285.039c-.196.071-.282.387-.456.842-.369.999-1.219 3.52-1.616 4.71-.09.278-.13.374-.236.374-.083 0-.128-.095-.25-.392l-1.683-3.972h-.019c-.152.405-1.23 3.213-1.578 3.94-.155.328-.193.424-.29.424-.082 0-.113-.087-.187-.295l-1.716-5.039zm15.37 2.375c0-1.778-1.043-2.881-2.372-2.881-.93 0-1.992.507-1.992 2.483 0 1.651.935 2.96 2.488 2.96.568 0 1.876-.269 1.876-2.562zm-5.479-.15c0-1.358.914-3.11 3.344-3.11 2.015 0 3.27 1.147 3.27 2.966 0 1.817-1.298 3.253-3.35 3.253-2.325 0-3.264-1.706-3.264-3.11zm10.529-.072c0 .088.017.117.072.143.168.056.415.08.616.08.322 0 .428-.035.576-.135.242-.176.476-.543.476-1.195 0-1.123-.757-1.447-1.24-1.447-.201 0-.347.005-.427.033-.056.015-.073.046-.073.109V6.23zm-.954-.626c0-1.206 0-1.43-.016-1.682-.016-.273-.081-.398-.348-.455a2.114 2.114 0 00-.317-.02c-.089 0-.139-.02-.139-.074 0-.055.059-.069.177-.069.433 0 .943.02 1.113.02.273 0 .888-.02 1.138-.02.512 0 1.057.048 1.49.34.23.151.552.557.552 1.086 0 .588-.25 1.123-1.068 1.774.72.891 1.278 1.598 1.756 2.088.452.46.784.514.908.54.087.017.162.024.224.024.067 0 .099.028.099.066 0 .059-.056.077-.156.077h-.767c-.455 0-.657-.042-.864-.15-.35-.183-.66-.557-1.11-1.166-.325-.439-.694-.976-.804-1.098-.037-.043-.087-.052-.144-.052l-.705-.019c-.038 0-.065.02-.065.064v.114c0 .737 0 1.362.04 1.696.025.229.071.407.318.435.121.02.296.033.394.033.065 0 .1.028.1.066 0 .054-.057.077-.164.077-.468 0-1.067-.023-1.188-.023-.154 0-.664.023-.989.023-.108 0-.162-.023-.162-.077 0-.038.033-.066.133-.066.119 0 .215-.014.288-.033.161-.029.203-.206.235-.435.041-.334.041-.96.041-1.688V5.604zM76.314 7c0 1.013 0 1.56.17 1.703.137.121.35.178.978.178.43 0 .746-.011.948-.225a.942.942 0 00.21-.474c.009-.072.023-.12.088-.12.06 0 .068.04.068.133 0 .09-.059.686-.123.912-.048.174-.09.217-.512.217-.58 0-1-.018-1.365-.025-.33-.017-.66-.024-.989-.023-.087 0-.27 0-.461.005-.186 0-.396.018-.556.018-.107 0-.165-.023-.165-.077 0-.038.036-.066.13-.066.123 0 .219-.014.292-.033.165-.029.203-.206.233-.435.042-.334.042-.96.042-1.688V5.604c0-1.206 0-1.43-.016-1.682-.016-.273-.083-.398-.347-.455a1.527 1.527 0 00-.268-.02c-.09 0-.138-.02-.138-.074 0-.055.058-.069.177-.069.382 0 .89.02 1.11.02.195 0 .786-.02 1.1-.02.114 0 .173.014.173.07 0 .053-.05.072-.148.072-.105.002-.21.009-.316.021-.219.042-.285.176-.299.455-.016.252-.016.476-.016 1.682V7zm6.166-.524c0 .838.006 1.45.017 1.603.007.196.026.513.091.602.104.15.42.315 1.058.315.826 0 1.377-.158 1.86-.57.523-.438.681-1.158.681-1.974 0-1.006-.429-1.66-.774-1.985-.747-.698-1.67-.791-2.3-.791-.163 0-.462.021-.526.054-.072.033-.1.071-.1.157-.007.273-.007.963-.007 1.591v.998zm-1.01-.872c0-1.206 0-1.43-.019-1.682-.016-.273-.08-.398-.347-.455a2.077 2.077 0 00-.314-.02c-.092 0-.14-.02-.14-.074 0-.055.059-.069.178-.069.43 0 .937.02 1.166.02.25 0 .762-.02 1.248-.02 1.011 0 2.364 0 3.246.902.406.414.783 1.073.783 2.014 0 1-.427 1.763-.881 2.216-.373.372-1.214.935-2.71.935-.292 0-.625-.024-.931-.047-.31-.025-.594-.048-.792-.048-.09 0-.27 0-.465.005-.186 0-.395.018-.559.018-.105 0-.158-.023-.158-.077 0-.038.032-.066.127-.066.122 0 .22-.014.291-.033.164-.029.204-.206.237-.435.04-.334.04-.96.04-1.688V5.604zM50.133 19.103c0 .09.017.122.071.145.17.055.416.079.615.079.326 0 .431-.033.575-.135.245-.176.476-.538.476-1.19 0-1.127-.758-1.451-1.235-1.451-.202 0-.35.008-.43.031-.055.017-.072.046-.072.11v2.411zm-.957-.624c0-1.207 0-1.43-.014-1.683-.016-.268-.08-.396-.352-.45a1.61 1.61 0 00-.312-.024c-.087 0-.136-.016-.136-.075 0-.054.054-.072.179-.072.425 0 .935.027 1.106.027.273 0 .888-.027 1.142-.027.507 0 1.053.052 1.49.346.224.15.55.555.55 1.086 0 .584-.254 1.125-1.07 1.776.72.888 1.279 1.594 1.757 2.087.452.459.784.516.905.537.091.016.162.028.228.028.062 0 .097.019.097.06 0 .065-.057.079-.154.079h-.77c-.456 0-.654-.038-.866-.15-.348-.184-.655-.554-1.108-1.166-.324-.434-.694-.976-.8-1.092-.041-.051-.092-.057-.15-.057l-.7-.016c-.04 0-.064.016-.064.062v.114c0 .736 0 1.36.039 1.695.026.229.073.405.316.436.121.017.3.035.395.035.066 0 .1.019.1.06 0 .054-.06.079-.165.079-.468 0-1.066-.025-1.187-.025-.156 0-.666.025-.987.025-.104 0-.165-.025-.165-.079 0-.04.034-.06.13-.06.123 0 .221-.018.295-.035.16-.031.201-.207.234-.436.037-.335.037-.96.037-1.691v-1.394zm7.381 0c0-1.207 0-1.43-.015-1.683-.015-.268-.081-.396-.348-.45a1.69 1.69 0 00-.314-.024c-.09 0-.141-.016-.141-.075 0-.054.058-.072.18-.072.218 0 .454.01.657.01.208.008.395.017.508.017.26 0 1.87 0 2.025-.01.15-.017.28-.031.346-.046.04-.007.091-.033.129-.033.04 0 .049.033.049.072 0 .056-.038.152-.066.517-.005.078-.022.43-.038.52-.008.042-.026.088-.083.088-.056 0-.072-.038-.072-.108a.827.827 0 00-.046-.286c-.06-.143-.14-.24-.545-.288a26.725 26.725 0 00-1.149-.029c-.041 0-.056.021-.056.078v2.008c0 .055.009.086.056.086.178 0 1.11 0 1.295-.016.196-.015.316-.038.387-.118.058-.064.09-.104.13-.104.034 0 .057.016.057.065 0 .047-.03.173-.064.578-.006.157-.033.476-.033.533 0 .062 0 .148-.073.148-.057 0-.073-.03-.073-.07-.005-.078-.005-.18-.03-.287-.041-.157-.153-.275-.455-.308a26.413 26.413 0 00-1.148-.025c-.04 0-.049.033-.049.081v.625c0 .27-.01 1.002 0 1.232.015.543.144.667.969.667.212 0 .552 0 .763-.094.211-.1.308-.262.366-.59.015-.09.03-.12.088-.12.065 0 .065.065.065.144 0 .183-.065.723-.107.88-.059.206-.127.206-.435.206-.608 0-1.051-.018-1.402-.024-.347-.014-.6-.025-.842-.025-.09 0-.267 0-.462.01-.186 0-.395.015-.558.015-.105 0-.165-.025-.165-.079 0-.04.037-.06.13-.06.123 0 .222-.018.295-.035.162-.031.2-.207.234-.436.04-.335.04-.96.04-1.691v-1.394zm5.943 3.602c-.133-.058-.155-.095-.155-.27 0-.439.03-.913.037-1.039.01-.12.035-.204.099-.204.074 0 .08.07.08.133 0 .1.035.267.074.405.177.586.657.8 1.16.8.724 0 1.082-.487 1.082-.908 0-.388-.124-.75-.793-1.266l-.372-.287c-.89-.68-1.198-1.239-1.198-1.879 0-.873.745-1.502 1.871-1.502.524 0 .865.082 1.076.138.073.018.115.038.115.095 0 .103-.037.33-.037.951 0 .176-.025.238-.087.238-.058 0-.082-.047-.082-.14a.93.93 0 00-.208-.526c-.123-.148-.357-.388-.885-.388-.599 0-.962.341-.962.816 0 .367.19.641.86 1.145l.224.165c.982.721 1.328 1.269 1.328 2.024 0 .457-.177 1.008-.758 1.378-.404.252-.858.328-1.29.328-.468 0-.831-.057-1.179-.207zm11.021-2.754c0-1.776-1.043-2.88-2.368-2.88-.933 0-1.994.51-1.994 2.483 0 1.652.933 2.96 2.485 2.96.569 0 1.877-.272 1.877-2.563zm-5.48-.15c0-1.356.914-3.113 3.344-3.113 2.013 0 3.272 1.154 3.272 2.971 0 1.817-1.298 3.253-3.353 3.253-2.322 0-3.263-1.706-3.263-3.112zm9.308-.698c0-1.207 0-1.43-.015-1.683-.017-.268-.082-.396-.35-.45a1.675 1.675 0 00-.317-.024c-.09 0-.136-.016-.136-.075 0-.054.055-.072.178-.072.428 0 .938.027 1.182.027.192 0 .706-.027.994-.027.123 0 .18.018.18.072 0 .059-.05.076-.13.076-.09 0-.14.006-.236.022-.22.038-.28.176-.3.451-.014.253-.014.476-.014 1.683v1.11c0 1.148.234 1.634.63 1.953.364.293.739.324 1.011.324.357 0 .796-.11 1.12-.429.444-.44.467-1.15.467-1.968v-.99c0-1.207 0-1.43-.014-1.683-.016-.268-.082-.396-.348-.45a1.576 1.576 0 00-.294-.024c-.088 0-.135-.016-.135-.075 0-.054.054-.072.17-.072.41 0 .919.027.919.027.11 0 .616-.027.933-.027.116 0 .168.018.168.072 0 .059-.045.076-.145.076-.087 0-.139.006-.23.022-.221.038-.29.176-.304.451-.016.253-.016.476-.016 1.683v.848c0 .881-.087 1.814-.77 2.386-.573.485-1.155.575-1.684.575-.425 0-1.205-.027-1.794-.551-.415-.365-.72-.95-.72-2.1V18.48zm9.47.624c0 .09.015.122.072.145.17.055.412.079.615.079.324 0 .428-.033.574-.135.244-.176.478-.538.478-1.19 0-1.127-.76-1.451-1.238-1.451a1.85 1.85 0 00-.43.031c-.056.017-.072.046-.072.11v2.411zm-.956-.624c0-1.207 0-1.43-.017-1.683-.017-.268-.08-.396-.347-.45a1.694 1.694 0 00-.316-.024c-.087 0-.14-.016-.14-.075 0-.054.056-.072.181-.072.426 0 .938.027 1.107.027.278 0 .891-.027 1.143-.027.51 0 1.053.052 1.487.346.23.15.553.555.553 1.086 0 .584-.25 1.125-1.07 1.776.72.888 1.278 1.594 1.755 2.087.453.459.787.516.907.537.09.016.164.028.227.028.066 0 .097.019.097.06 0 .065-.055.079-.155.079h-.767c-.45 0-.657-.038-.864-.15-.35-.184-.66-.554-1.11-1.166-.325-.434-.697-.976-.802-1.092-.041-.051-.091-.057-.145-.057l-.702-.016c-.042 0-.067.016-.067.062v.114c0 .736 0 1.36.041 1.695.026.229.071.405.317.436.119.017.298.035.394.035.065 0 .096.019.096.06 0 .054-.056.079-.16.079-.47 0-1.07-.025-1.19-.025-.154 0-.666.025-.987.025-.105 0-.16-.025-.16-.079 0-.04.028-.06.127-.06.123 0 .22-.018.291-.035.162-.031.202-.207.236-.436.04-.335.04-.96.04-1.691v-1.394zm7.461 2.94c-.796-.682-1.003-1.569-1.003-2.338 0-.537.17-1.475.949-2.174.578-.524 1.348-.843 2.555-.843.501 0 .802.035 1.173.082.309.038.568.113.811.134.087.009.122.049.122.098 0 .063-.025.154-.041.433-.017.265-.01.7-.026.857-.008.12-.024.184-.097.184-.064 0-.08-.065-.08-.176a1.135 1.135 0 00-.315-.727c-.267-.277-.897-.494-1.643-.494-.705 0-1.167.173-1.522.494-.591.528-.746 1.282-.746 2.051 0 1.888 1.467 2.825 2.55 2.825.72 0 1.157-.077 1.48-.445.14-.15.245-.382.276-.522.024-.129.042-.158.106-.158.058 0 .073.054.073.12 0 .093-.097.784-.18 1.053-.042.134-.072.176-.206.23-.327.128-.943.185-1.46.185-1.109 0-2.04-.239-2.776-.869zm7.621-2.94c0-1.207 0-1.43-.013-1.683-.016-.268-.083-.396-.349-.45a1.636 1.636 0 00-.315-.024c-.089 0-.14-.016-.14-.075 0-.054.058-.072.175-.072.225 0 .456.01.66.01.214.008.399.017.511.017.259 0 1.868 0 2.024-.01.152-.017.282-.031.347-.046.042-.007.093-.033.127-.033.044 0 .049.033.049.072 0 .056-.04.152-.062.517-.008.078-.021.43-.04.52-.008.042-.026.088-.08.088-.059 0-.075-.038-.075-.108a.778.778 0 00-.05-.286c-.055-.143-.136-.24-.541-.288a26.69 26.69 0 00-1.148-.029c-.042 0-.058.021-.058.078v2.008c0 .055.011.086.058.086.175 0 1.111 0 1.295-.016.194-.015.313-.038.387-.118.057-.064.09-.104.132-.104.029 0 .055.016.055.065 0 .047-.033.173-.064.578a19.5 19.5 0 00-.033.533c0 .062 0 .148-.074.148-.055 0-.073-.03-.073-.07-.006-.078-.006-.18-.03-.287-.043-.157-.156-.275-.456-.308a26.3 26.3 0 00-1.145-.025c-.041 0-.052.033-.052.081v.625c0 .27-.007 1.002 0 1.232.016.543.149.667.972.667.21 0 .55 0 .761-.094.211-.1.307-.262.366-.59.011-.09.031-.12.088-.12.065 0 .065.065.065.144 0 .183-.065.723-.105.88-.057.206-.133.206-.438.206-.605 0-1.051-.018-1.4-.024-.35-.014-.601-.025-.839-.025-.092 0-.271 0-.463.01-.189 0-.399.015-.561.015-.11 0-.162-.025-.162-.079 0-.04.034-.06.131-.06.098 0 .195-.012.291-.035.162-.031.202-.207.235-.436.037-.335.037-.96.037-1.691v-1.394zm5.943 3.602c-.127-.058-.154-.095-.154-.27 0-.439.032-.913.042-1.039.009-.12.029-.204.094-.204.075 0 .08.07.08.133 0 .1.032.267.076.405.176.586.656.8 1.157.8.726 0 1.084-.487 1.084-.908 0-.388-.121-.75-.794-1.266l-.371-.287c-.891-.68-1.197-1.239-1.197-1.879 0-.873.744-1.502 1.869-1.502.526 0 .869.082 1.077.138.073.018.114.038.114.095 0 .103-.032.33-.032.951 0 .176-.025.238-.092.238-.055 0-.081-.047-.081-.14a.944.944 0 00-.208-.526c-.123-.148-.358-.388-.885-.388-.597 0-.961.341-.961.816 0 .367.188.641.859 1.145l.225.165c.98.721 1.328 1.269 1.328 2.024 0 .457-.18 1.008-.761 1.378-.407.252-.86.328-1.287.328-.47 0-.834-.057-1.182-.207zm-57.712 9.274c0-1.204 0-1.426-.014-1.682-.016-.27-.097-.404-.277-.444a1.113 1.113 0 00-.293-.028c-.078 0-.127-.019-.127-.085 0-.044.066-.061.192-.061.31 0 .82.022 1.053.022.203 0 .681-.022.99-.022.104 0 .167.017.167.06 0 .068-.048.086-.13.086-.077 0-.143.003-.243.02-.217.04-.28.175-.295.452-.019.256-.019.478-.019 1.682v1.395c0 .77 0 1.397.033 1.74.026.213.082.354.322.385.115.017.292.035.415.035.089 0 .128.023.128.063 0 .054-.063.078-.154.078-.533 0-1.043-.024-1.262-.024-.186 0-.696.024-1.018.024-.103 0-.164-.024-.164-.078 0-.04.034-.063.13-.063.123 0 .221-.018.295-.035.16-.03.207-.162.234-.394.037-.334.037-.96.037-1.73v-1.396zm5.383 2.62c.017.617.121.824.284.88.137.045.29.055.42.055.091 0 .137.015.137.063 0 .062-.071.078-.184.078-.527 0-.854-.024-1.005-.024-.072 0-.452.024-.875.024-.103 0-.178-.006-.178-.078 0-.048.048-.063.128-.063.106 0 .253-.01.366-.039.213-.064.243-.297.251-.984l.075-4.698c0-.16.022-.27.104-.27.087 0 .16.104.3.245a96.694 96.694 0 002.508 2.548c.552.54 1.642 1.683 1.779 1.808h.044l-.082-3.562c-.01-.485-.084-.633-.276-.714-.12-.043-.316-.043-.428-.043-.097 0-.132-.026-.132-.076 0-.064.092-.07.213-.07.422 0 .81.022.98.022.09 0 .395-.022.791-.022.106 0 .188.006.188.07 0 .05-.049.076-.148.076-.08 0-.143 0-.242.02-.227.066-.29.23-.299.675l-.09 5.004c0 .174-.032.25-.105.25-.089 0-.186-.091-.275-.177-.508-.477-1.546-1.515-2.387-2.333-.884-.858-1.782-1.848-1.928-1.998h-.021l.087 3.332zm8.037.984c-.13-.059-.153-.098-.153-.271 0-.436.031-.912.038-1.04.01-.117.033-.206.097-.206.073 0 .083.071.083.137 0 .099.032.267.073.4.177.588.655.804 1.158.804.725 0 1.084-.484 1.084-.905 0-.387-.123-.753-.793-1.27l-.374-.284c-.89-.685-1.198-1.238-1.198-1.88 0-.874.743-1.499 1.868-1.499.364-.004.727.04 1.079.132.073.019.113.039.113.098 0 .104-.032.332-.032.95 0 .174-.024.238-.09.238-.056 0-.082-.045-.082-.143a.942.942 0 00-.207-.52c-.123-.154-.36-.39-.884-.39-.598 0-.961.341-.961.814 0 .367.186.642.857 1.144l.226.166c.979.721 1.325 1.27 1.325 2.024a1.59 1.59 0 01-.76 1.378c-.402.254-.857.329-1.285.329-.47 0-.836-.059-1.182-.206zm7.501-5.459l-1.205.03c-.473.016-.662.055-.784.23a.947.947 0 00-.141.277c-.014.065-.039.096-.087.096-.056 0-.074-.038-.074-.126 0-.126.153-.848.174-.912.023-.106.047-.149.092-.149.066 0 .149.077.347.091.237.024.544.04.81.04h3.209c.256 0 .435-.022.556-.04.122-.023.187-.036.22-.036.058 0 .064.045.064.163 0 .169-.024.717-.024.921-.008.082-.023.128-.073.128-.065 0-.082-.042-.091-.156l-.004-.09c-.018-.206-.236-.427-.956-.443l-1.02-.024v3.25c0 .73 0 1.357.043 1.698.02.224.07.396.312.427.113.017.292.035.412.035.09 0 .13.023.13.063 0 .054-.065.078-.153.078-.534 0-1.041-.024-1.268-.024-.19 0-.702.024-1.023.024-.104 0-.164-.024-.164-.078 0-.04.036-.063.13-.063.126 0 .223-.018.293-.035.164-.03.21-.203.234-.432.041-.336.041-.963.041-1.693V29.5zm5.942 1.855c0-1.204 0-1.426-.016-1.682-.017-.27-.1-.404-.275-.444a1.112 1.112 0 00-.295-.028c-.08 0-.128-.019-.128-.085 0-.044.064-.061.192-.061.31 0 .822.022 1.056.022.202 0 .679-.022.987-.022.105 0 .168.017.168.06 0 .068-.049.086-.128.086-.08 0-.143.003-.242.02-.218.04-.286.175-.299.452-.017.256-.017.478-.017 1.682v1.395c0 .77 0 1.397.03 1.74.027.213.082.354.328.385.11.017.29.035.413.035.088 0 .127.023.127.063 0 .054-.068.078-.156.078-.532 0-1.043-.024-1.262-.024-.183 0-.695.024-1.02.024-.105 0-.162-.024-.162-.078 0-.04.033-.063.13-.063.122 0 .22-.018.29-.035.163-.03.21-.162.235-.394.044-.334.044-.96.044-1.73v-1.396zm6.002-1.855l-1.204.03c-.469.016-.664.055-.787.23a.874.874 0 00-.135.277c-.02.065-.042.096-.09.096-.059 0-.071-.038-.071-.126 0-.126.151-.848.168-.912.025-.106.048-.149.097-.149.065 0 .146.077.35.091.234.024.54.04.807.04h3.206c.26 0 .437-.022.562-.04.117-.023.184-.036.214-.036.057 0 .066.045.066.163 0 .169-.025.717-.025.921-.007.082-.024.128-.071.128-.067 0-.082-.042-.09-.156l-.007-.09c-.016-.206-.237-.427-.954-.443l-1.023-.024v3.25c0 .73 0 1.357.04 1.698.025.224.073.396.317.427.114.017.29.035.41.035.093 0 .134.023.134.063 0 .054-.066.078-.157.078-.532 0-1.044-.024-1.272-.024-.183 0-.693.024-1.02.024-.104 0-.162-.024-.162-.078 0-.04.036-.063.131-.063.122 0 .219-.018.289-.035.165-.03.213-.203.24-.432.037-.336.037-.963.037-1.693V29.5zm5.594 1.855c0-1.204 0-1.426-.018-1.682-.016-.27-.08-.393-.347-.451a1.623 1.623 0 00-.313-.02c-.088 0-.14-.02-.14-.077 0-.053.056-.07.18-.07.427 0 .937.022 1.18.022.194 0 .702-.022.996-.022.122 0 .178.017.178.07 0 .058-.05.076-.13.076-.087 0-.14.003-.236.02-.215.04-.283.175-.298.452-.016.256-.016.478-.016 1.682v1.11c0 1.151.235 1.636.63 1.952.364.296.737.326 1.014.326.354 0 .788-.111 1.115-.429.446-.436.468-1.149.468-1.967v-.992c0-1.204 0-1.426-.015-1.682-.013-.27-.078-.393-.347-.451a1.474 1.474 0 00-.288-.02c-.095 0-.145-.02-.145-.077 0-.053.06-.07.172-.07.417 0 .925.022.932.022.099 0 .609-.022.926-.022.11 0 .168.017.168.07 0 .058-.048.076-.145.076-.09 0-.137.003-.236.02-.22.04-.284.175-.3.452-.016.256-.016.478-.016 1.682v.847c0 .882-.09 1.818-.77 2.39-.572.483-1.155.572-1.683.572-.429 0-1.206-.023-1.795-.544-.413-.368-.722-.956-.722-2.107v-1.158h.001zm9.589-1.855l-1.206.03c-.47.016-.662.055-.784.23a1.1 1.1 0 00-.139.277c-.014.065-.04.096-.088.096-.056 0-.073-.038-.073-.126 0-.126.152-.848.168-.912.026-.106.052-.149.1-.149.063 0 .143.077.347.091.234.024.543.04.81.04h3.205c.26 0 .435-.022.56-.04.12-.023.184-.036.22-.036.054 0 .064.045.064.163 0 .169-.026.717-.026.921-.01.082-.024.128-.074.128-.064 0-.083-.042-.087-.156l-.007-.09c-.02-.206-.237-.427-.954-.443l-1.023-.024v3.25c0 .73 0 1.357.04 1.698.026.224.076.396.314.427.119.017.291.035.414.035.091 0 .131.023.131.063 0 .054-.067.078-.154.078-.538 0-1.045-.024-1.269-.024-.188 0-.7.024-1.024.024-.103 0-.16-.024-.16-.078 0-.04.03-.063.13-.063.12 0 .218-.018.29-.035.163-.03.21-.203.237-.432.038-.336.038-.963.038-1.693V29.5zm5.94 1.855c0-1.204 0-1.426-.015-1.682-.016-.27-.078-.393-.347-.451a1.645 1.645 0 00-.318-.02c-.088 0-.138-.02-.138-.077 0-.053.057-.07.181-.07.219 0 .451.006.658.006.208.01.392.016.505.016.261 0 1.873 0 2.025-.005.153-.017.284-.034.35-.05.041-.008.087-.033.128-.033.04 0 .049.034.049.072 0 .055-.043.151-.064.516-.01.08-.026.43-.045.525-.005.041-.023.086-.078.086-.056 0-.073-.037-.073-.11a.747.747 0 00-.05-.285c-.056-.142-.134-.24-.543-.286a25.235 25.235 0 00-1.147-.035c-.042 0-.058.028-.058.081v2.007c0 .058.01.088.058.088.178 0 1.111 0 1.295-.015.191-.015.312-.038.387-.118.058-.064.091-.104.131-.104.032 0 .055.015.055.062 0 .048-.032.175-.065.578-.009.16-.03.48-.03.533 0 .064 0 .155-.074.155-.056 0-.073-.035-.073-.075-.009-.08-.009-.183-.033-.285-.037-.16-.154-.28-.45-.306-.154-.022-.96-.028-1.153-.028-.038 0-.048.032-.048.08v.625c0 .27-.006 1 0 1.23.016.549.149.665.97.665.212 0 .552 0 .764-.094.21-.095.307-.26.364-.588.014-.085.03-.118.09-.118.064 0 .064.063.064.144 0 .183-.065.724-.106.882-.058.203-.131.203-.438.203-.607 0-1.053-.015-1.399-.023-.28-.015-.562-.023-.843-.024-.089 0-.267 0-.462.008-.185 0-.397.016-.558.016-.103 0-.16-.024-.16-.078 0-.04.03-.063.13-.063.12 0 .219-.018.29-.035.163-.03.204-.203.233-.432.041-.336.041-.963.041-1.693v-1.395z" fill="#285AE3"/></symbol>
</svg>